<?xml version="1.0" encoding="UTF-8" ?>
<!DOCTYPE svg PUBLIC "-//W3C//DTD SVG 1.1//EN" "http://www.w3.org/Graphics/SVG/1.1/DTD/svg11.dtd">
<svg width="500pt" height="500pt" viewBox="0 0 500 500" version="1.1" xmlns="http://www.w3.org/2000/svg">
<g id="#ffffffff">
</g>
<g id="#8821fbff">
<path fill="#8821fb" opacity="1.00" d=" M 246.53 22.86 C 250.54 21.55 254.65 23.04 258.03 25.23 C 318.02 59.79 377.90 94.57 437.97 129.00 C 441.29 130.90 444.83 132.74 447.25 135.79 C 448.18 137.68 448.41 139.83 448.62 141.90 C 448.27 214.90 448.67 287.92 448.41 360.92 C 448.29 365.14 444.36 367.42 441.04 369.10 C 378.86 405.01 316.69 440.94 254.48 476.81 C 251.65 478.36 248.09 478.36 245.32 476.69 C 226.33 466.22 207.61 455.27 188.94 444.25 C 149.27 421.12 109.41 398.32 69.69 375.28 C 64.11 372.05 57.53 369.83 53.43 364.60 C 50.94 361.62 51.30 357.55 51.28 353.93 C 51.76 282.26 51.31 210.58 51.56 138.91 C 51.43 135.89 53.96 133.73 56.37 132.40 C 101.30 106.45 146.21 80.46 191.17 54.57 C 209.69 44.11 227.57 32.50 246.53 22.86 M 69.58 145.89 C 69.32 185.58 69.55 225.26 69.47 264.95 C 69.57 294.68 69.27 324.43 69.63 354.16 C 129.08 388.39 188.54 422.63 247.89 457.05 C 248.96 457.61 250.27 458.43 251.39 457.46 C 311.04 422.87 370.86 388.56 430.49 353.94 C 430.51 297.30 430.49 240.67 430.50 184.04 C 430.35 171.37 430.79 158.65 430.24 146.02 C 423.84 141.82 416.94 138.37 410.39 134.39 C 356.94 103.53 303.53 72.61 250.05 41.83 C 189.82 76.39 129.79 111.29 69.58 145.89 Z" />
<path fill="#8821fb" opacity="1.00" d=" M 173.69 157.51 C 182.93 157.53 192.17 157.50 201.41 157.48 C 200.45 164.95 199.95 172.47 199.71 180.00 C 199.77 195.98 199.66 211.97 199.77 227.96 C 218.42 223.80 236.60 217.85 254.80 212.08 C 273.92 205.47 293.18 198.73 310.53 188.15 C 313.66 196.23 317.62 203.99 320.52 212.15 C 281.64 229.54 240.66 241.53 199.66 252.76 C 199.84 268.82 199.62 284.89 199.77 300.95 C 199.76 305.89 201.46 311.48 206.25 313.76 C 212.64 316.97 220.00 317.44 227.02 317.86 C 242.35 318.87 257.69 318.19 273.01 317.53 C 290.86 316.20 308.84 314.93 326.26 310.57 C 326.31 319.74 326.26 328.91 326.23 338.08 C 293.33 341.91 260.16 343.04 227.05 342.31 C 216.42 341.63 205.52 341.32 195.40 337.61 C 188.38 335.20 181.84 330.44 178.62 323.59 C 175.74 318.23 175.48 311.98 175.28 306.03 C 175.28 262.35 175.30 218.68 175.27 175.01 C 174.92 169.16 174.52 163.31 173.69 157.51 Z" />
</g>
</svg>
