<?xml version="1.0" encoding="utf-8"?>
<svg version="1.1" xmlns="http://www.w3.org/2000/svg" xmlns:xlink="http://www.w3.org/1999/xlink" x="0px" y="0px"
	 viewBox="0 0 36 36" style="enable-background:new 0 0 36 36;" xml:space="preserve">
<g>
	<path style="fill:#8821FB;stroke:#8821FB;stroke-miterlimit:10;" d="M17.8,1.6c0.3-0.1,0.6,0,0.8,0.2c4.3,2.5,8.6,5,13,7.5
		c0.2,0.1,0.5,0.3,0.7,0.5c0.1,0.1,0.1,0.3,0.1,0.4c0,5.3,0,10.5,0,15.8c0,0.3-0.3,0.5-0.5,0.6c-4.5,2.6-9,5.2-13.4,7.8
		c-0.2,0.1-0.5,0.1-0.7,0c-1.4-0.8-2.7-1.5-4.1-2.3c-2.9-1.7-5.7-3.3-8.6-5c-0.4-0.2-0.9-0.4-1.2-0.8c-0.2-0.2-0.2-0.5-0.2-0.8
		c0-5.2,0-10.3,0-15.5c0-0.2,0.2-0.4,0.3-0.5c3.2-1.9,6.5-3.7,9.7-5.6C15.1,3.2,16.4,2.3,17.8,1.6 M5,10.5c0,2.9,0,5.7,0,8.6
		c0,2.1,0,4.3,0,6.4c4.3,2.5,8.6,4.9,12.8,7.4c0.1,0,0.2,0.1,0.3,0c4.3-2.5,8.6-5,12.9-7.5c0-4.1,0-8.2,0-12.2c0-0.9,0-1.8,0-2.7
		c-0.5-0.3-1-0.6-1.4-0.8C25.7,7.5,21.9,5.2,18,3C13.7,5.5,9.3,8,5,10.5z"/>
	<path style="fill:#8821FB;stroke:#8821FB;stroke-width:0.75;stroke-miterlimit:10;" d="M12.5,11.3c0.7,0,1.3,0,2,0
		c-0.1,0.5-0.1,1.1-0.1,1.6c0,1.2,0,2.3,0,3.5c1.3-0.3,2.7-0.7,4-1.1c1.4-0.5,2.8-1,4-1.7c0.2,0.6,0.5,1.1,0.7,1.7
		c-2.8,1.3-5.7,2.1-8.7,2.9c0,1.2,0,2.3,0,3.5c0,0.4,0.1,0.8,0.5,0.9c0.5,0.2,1,0.3,1.5,0.3c1.1,0.1,2.2,0,3.3,0
		c1.3-0.1,2.6-0.2,3.8-0.5c0,0.7,0,1.3,0,2c-2.4,0.3-4.8,0.4-7.1,0.3c-0.8,0-1.6-0.1-2.3-0.3c-0.5-0.2-1-0.5-1.2-1
		c-0.2-0.4-0.2-0.8-0.2-1.3c0-3.1,0-6.3,0-9.4C12.6,12.2,12.6,11.8,12.5,11.3z"/>
</g>
</svg>
